<svg width="76" height="84" viewBox="0 0 76 84" fill="none" xmlns="http://www.w3.org/2000/svg">
<path d="M62.5386 10.374C62.2008 10.374 61.8841 10.29 61.5675 10.143C53.4819 5.985 46.4519 4.2 38.0497 4.2C29.6686 4.2 21.773 6.195 14.5319 10.122C13.4975 10.668 12.2308 10.311 11.6608 9.282C11.1119 8.253 11.4708 6.993 12.5052 6.426C20.3797 2.163 28.9719 0 38.0497 0C47.043 0 54.8964 1.974 63.5097 6.405C64.5441 6.93 64.9452 8.211 64.4175 9.24C64.0375 9.954 63.2986 10.374 62.5386 10.374ZM2.11857 32.424C1.69635 32.424 1.27413 32.298 0.89413 32.046C-0.05587 31.374 -0.288092 30.072 0.387463 29.127C4.56746 23.247 9.90857 18.627 16.2419 15.372C29.5208 8.547 46.4941 8.526 59.7941 15.33C66.1063 18.564 71.4263 23.142 75.6275 28.98C76.303 29.925 76.0919 31.227 75.1419 31.899C74.1919 32.571 72.8619 32.361 72.1863 31.416C68.3863 26.124 63.573 21.966 57.873 19.068C45.7552 12.873 30.2808 12.894 18.1841 19.11C12.463 22.05 7.62857 26.229 3.84969 31.563C3.42746 32.13 2.77302 32.424 2.11857 32.424ZM28.5286 83.097C27.9797 83.097 27.4519 82.887 27.0297 82.467C23.3775 78.792 21.393 76.461 18.543 71.4C15.6297 66.234 14.0886 59.913 14.0886 53.151C14.0886 40.677 24.813 30.513 38.0075 30.513C51.2019 30.513 61.9263 40.656 61.9263 53.151C61.9263 54.306 60.9763 55.251 59.8152 55.251C58.6541 55.251 57.7041 54.306 57.7041 53.151C57.7041 42.987 48.8797 34.713 38.0075 34.713C27.1564 34.713 18.3108 42.987 18.3108 53.151C18.3108 59.199 19.6619 64.785 22.2164 69.342C24.9397 74.172 26.7552 76.251 30.0063 79.506C30.8297 80.325 30.8297 81.669 29.9852 82.467C29.6052 82.908 29.0564 83.097 28.5286 83.097ZM58.7808 75.327C53.7563 75.327 49.3441 74.067 45.6919 71.61C39.4219 67.368 35.6641 60.48 35.6641 53.172C35.6641 52.017 36.6141 51.072 37.7752 51.072C38.9363 51.072 39.8863 52.017 39.8863 53.172C39.8863 59.073 42.9475 64.659 48.0775 68.124C51.0541 70.14 54.5586 71.127 58.7808 71.127C59.7941 71.127 61.5041 71.022 63.193 70.728C64.333 70.518 65.4308 71.295 65.6419 72.429C65.853 73.563 65.0719 74.655 63.9319 74.865C61.4619 75.306 59.3719 75.327 58.7808 75.327ZM50.273 84C50.083 84 49.893 83.979 49.7241 83.916C42.9897 82.089 38.5986 79.611 34.0386 75.096C28.1486 69.258 24.8975 61.467 24.8975 53.172C24.8975 46.347 30.7241 40.803 37.9019 40.803C45.0797 40.803 50.9063 46.347 50.9063 53.172C50.9063 57.666 54.8541 61.341 59.6886 61.341C64.523 61.341 68.4708 57.687 68.4708 53.172C68.4708 37.338 54.7486 24.465 37.8808 24.465C25.8686 24.465 14.9119 31.101 9.97191 41.391C8.32524 44.793 7.50191 48.762 7.50191 53.172C7.50191 56.448 7.79746 61.614 10.3097 68.313C10.7108 69.405 10.1619 70.602 9.06413 71.022C7.96635 71.421 6.76302 70.875 6.3408 69.783C4.27191 64.26 3.25857 58.842 3.25857 53.172C3.25857 48.132 4.22969 43.554 6.1508 39.585C11.7875 27.867 24.243 20.286 37.8597 20.286C57.0497 20.286 72.6719 35.049 72.6719 53.193C72.6719 60.018 66.8241 65.562 59.6675 65.562C52.5108 65.562 46.663 60.018 46.663 53.193C46.663 48.699 42.7152 45.024 37.8808 45.024C33.0463 45.024 29.0986 48.678 29.0986 53.193C29.0986 60.354 31.9063 67.095 36.9941 72.135C40.9841 76.083 44.8686 78.267 50.8219 79.884C51.9408 80.199 52.6163 81.354 52.2997 82.467C52.0463 83.391 51.2019 84 50.273 84Z" fill="#4360DF"/>
</svg>
