<svg width="11" height="19" viewBox="0 0 11 19" fill="none" xmlns="http://www.w3.org/2000/svg">
<path fill-rule="evenodd" clip-rule="evenodd" d="M3.76212 9.31538C1.60857 8.86488 2.55749e-06 6.94411 2.65648e-06 4.67933C-0.000547587 4.06336 0.121568 3.45336 0.359321 2.88437C0.597073 2.31539 0.945783 1.79864 1.38541 1.36381C1.82504 0.928987 2.34691 0.58466 2.92105 0.35062C3.49519 0.116579 4.11028 -0.00256231 4.73096 4.15e-05C5.35159 -0.00247228 5.96659 0.116735 6.54065 0.350816C7.11472 0.584897 7.63651 0.929238 8.07607 1.36405C8.51563 1.79887 8.86427 2.31559 9.10198 2.88453C9.33969 3.45347 9.46178 4.06342 9.46123 4.67933C9.51013 6.90484 7.92234 8.79817 5.8138 9.29063L5.8138 13.9827L5.92778 13.9827L8.4354 11.0506L10.829 11.0506L7.86549 14.4331L11 19L8.77735 19L6.4977 15.7292L5.8138 16.519L5.8138 18.9993L3.76212 18.9993L3.76212 9.31538ZM2.72016 2.68643C3.2541 2.15821 3.97704 1.8612 4.73096 1.86031C6.32672 1.86031 7.63751 3.15704 7.58052 4.67933C7.57725 5.42752 7.2757 6.144 6.74176 6.67223C6.20781 7.20045 5.48489 7.49746 4.73096 7.49835C3.1922 7.49835 1.8814 6.25749 1.8814 4.67933C1.88466 3.93114 2.18622 3.21466 2.72016 2.68643Z" fill="#939BA1"/>
</svg>
